<svg width="25" height="9" viewBox="0 0 25 9" fill="none" xmlns="http://www.w3.org/2000/svg">
<path d="M7.84799 7.8V8.22H4.95599L3.32399 5.004L3.35999 4.98C3.17599 4.996 2.91599 5.012 2.57999 5.028V7.788L3.16799 7.8V8.22H-6.80983e-06V7.8L0.587993 7.788V0.612001L-6.80983e-06 0.600001V0.180001L2.31599 0.204001L4.10399 0.0600011C4.67999 0.0600011 5.17199 0.168001 5.57999 0.384001C5.99599 0.592001 6.30799 0.876001 6.51599 1.236C6.73199 1.588 6.83999 1.98 6.83999 2.412C6.83999 2.908 6.69599 3.34 6.40799 3.708C6.11999 4.076 5.68799 4.372 5.11199 4.596L7.25999 7.788L7.84799 7.8ZM2.57999 4.56C3.24399 4.52 3.76399 4.34 4.13999 4.02C4.51599 3.692 4.70399 3.252 4.70399 2.7C4.70399 2.308 4.61199 1.952 4.42799 1.632C4.24399 1.312 3.99199 1.06 3.67199 0.876001C3.35199 0.692001 2.98799 0.600001 2.57999 0.600001V4.56ZM15.1182 8.412C14.5662 8.204 13.9902 7.932 13.3902 7.596C13.0782 7.844 12.6902 8.04 12.2262 8.184C11.7702 8.328 11.2942 8.4 10.7982 8.4C10.2782 8.4 9.80221 8.316 9.37021 8.148C8.94621 7.98 8.61021 7.744 8.36221 7.44C8.11421 7.128 7.99021 6.764 7.99021 6.348C7.99021 5.932 8.12221 5.536 8.38621 5.16C8.65821 4.784 9.01821 4.468 9.46621 4.212C8.93821 3.468 8.67421 2.812 8.67421 2.244C8.67421 1.884 8.78221 1.532 8.99821 1.188C9.22221 0.836001 9.53421 0.552001 9.93421 0.336001C10.3342 0.112001 10.7822 4.76837e-07 11.2782 4.76837e-07C11.7102 4.76837e-07 12.0862 0.0840006 12.4062 0.252001C12.7342 0.420001 12.9822 0.640001 13.1502 0.912001C13.3262 1.184 13.4142 1.472 13.4142 1.776C13.4142 2.216 13.2422 2.64 12.8982 3.048C12.5622 3.448 12.1502 3.76 11.6622 3.984C12.2222 4.512 12.8822 4.996 13.6422 5.436C13.8182 4.764 13.9542 4.068 14.0502 3.348L13.4382 3.336V2.916H16.0302V3.336L15.4422 3.348C15.0182 4.548 14.6982 5.396 14.4822 5.892C15.0982 6.188 15.6942 6.42 16.2702 6.588L15.1182 8.412ZM11.6742 2.628C11.6742 2.324 11.6062 2.044 11.4702 1.788C11.3342 1.532 11.1502 1.324 10.9182 1.164C10.6942 0.996001 10.4502 0.900001 10.1862 0.876001C10.1302 1.052 10.1022 1.224 10.1022 1.392C10.1022 2.08 10.5222 2.852 11.3622 3.708C11.5702 3.364 11.6742 3.004 11.6742 2.628ZM12.9702 7.344C12.3782 6.976 11.8182 6.572 11.2902 6.132C10.7702 5.692 10.3142 5.244 9.92221 4.788C9.84221 5.036 9.80221 5.268 9.80221 5.484C9.80221 5.868 9.91821 6.208 10.1502 6.504C10.3902 6.792 10.7102 7.012 11.1102 7.164C11.5102 7.316 11.9502 7.392 12.4302 7.392C12.6142 7.392 12.7942 7.38 12.9702 7.356V7.344ZM16.8398 7.8L17.4278 7.788V0.612001L16.8398 0.600001V0.180001L19.1558 0.204001L20.8598 0.0600011C22.0518 0.0600011 22.9718 0.392001 23.6198 1.056C24.2758 1.72 24.6038 2.68 24.6038 3.936C24.6038 4.784 24.4398 5.532 24.1118 6.18C23.7838 6.82 23.2918 7.32 22.6358 7.68C21.9798 8.04 21.1798 8.22 20.2358 8.22H16.8398V7.8ZM19.7558 7.8C20.6118 7.8 21.2758 7.504 21.7478 6.912C22.2278 6.32 22.4678 5.428 22.4678 4.236C22.4678 3.444 22.3318 2.78 22.0598 2.244C21.7958 1.7 21.4318 1.296 20.9678 1.032C20.5118 0.760001 19.9958 0.624001 19.4198 0.624001V7.8H19.7558Z" fill="#6AD491"/>
</svg>
