<svg width="160" height="9" viewBox="0 0 160 9" fill="none" xmlns="http://www.w3.org/2000/svg">
<path d="M7.84799 7.8V8.22H4.95599L3.32399 5.004L3.35999 4.98C3.17599 4.996 2.91599 5.012 2.57999 5.028V7.788L3.16799 7.8V8.22H-6.80983e-06V7.8L0.587993 7.788V0.612001L-6.80983e-06 0.600001V0.180001L2.31599 0.204001L4.10399 0.0600011C4.67999 0.0600011 5.17199 0.168001 5.57999 0.384001C5.99599 0.592001 6.30799 0.876001 6.51599 1.236C6.73199 1.588 6.83999 1.98 6.83999 2.412C6.83999 2.908 6.69599 3.34 6.40799 3.708C6.11999 4.076 5.68799 4.372 5.11199 4.596L7.25999 7.788L7.84799 7.8ZM2.57999 4.56C3.24399 4.52 3.76399 4.34 4.13999 4.02C4.51599 3.692 4.70399 3.252 4.70399 2.7C4.70399 2.308 4.61199 1.952 4.42799 1.632C4.24399 1.312 3.99199 1.06 3.67199 0.876001C3.35199 0.692001 2.98799 0.600001 2.57999 0.600001V4.56ZM14.3926 5.832V8.22H8.30859V7.8L8.89659 7.788V0.612001L8.30859 0.600001V0.180001H14.1526V2.508L13.6846 2.496L13.6606 1.896C12.7726 1.344 11.8486 0.880001 10.8886 0.504001L10.9126 3.84H13.1566V4.284H10.9126L10.9366 7.884C11.9606 7.492 12.9486 7.012 13.9006 6.444L13.9246 5.844L14.3926 5.832ZM17.3009 1.452C17.3009 1.708 17.3729 1.944 17.5169 2.16C17.6609 2.376 17.8409 2.568 18.0569 2.736C18.2729 2.904 18.5689 3.112 18.9449 3.36C19.3849 3.648 19.7369 3.904 20.0009 4.128C20.2649 4.344 20.4889 4.608 20.6729 4.92C20.8649 5.224 20.9609 5.568 20.9609 5.952C20.9609 6.376 20.8449 6.776 20.6129 7.152C20.3809 7.52 20.0329 7.82 19.5689 8.052C19.1049 8.284 18.5449 8.4 17.8889 8.4C16.4809 8.4 15.4809 7.84 14.8889 6.72L16.2449 5.676C16.6289 6.468 17.0609 7.236 17.5409 7.98H17.5529C17.7849 7.98 18.0009 7.92 18.2009 7.8C18.4009 7.672 18.5609 7.508 18.6809 7.308C18.8009 7.108 18.8609 6.896 18.8609 6.672C18.8609 6.432 18.7889 6.212 18.6449 6.012C18.5089 5.804 18.3369 5.624 18.1289 5.472C17.9209 5.312 17.6369 5.12 17.2769 4.896C16.8449 4.624 16.4969 4.384 16.2329 4.176C15.9689 3.968 15.7409 3.716 15.5489 3.42C15.3649 3.116 15.2729 2.768 15.2729 2.376C15.2729 1.936 15.3969 1.536 15.6449 1.176C15.9009 0.808001 16.2609 0.520001 16.7249 0.312001C17.1969 0.104001 17.7489 4.76837e-07 18.3809 4.76837e-07C18.9969 4.76837e-07 19.5009 0.100001 19.8929 0.300001C20.2929 0.492001 20.6529 0.768001 20.9729 1.128L19.7129 2.4C19.2889 1.696 18.8609 1.036 18.4289 0.420001C18.0689 0.420001 17.7889 0.520001 17.5889 0.720001C17.3969 0.912001 17.3009 1.156 17.3009 1.452ZM27.8223 5.832V8.22H21.7383V7.8L22.3263 7.788V0.612001L21.7383 0.600001V0.180001H27.5823V2.508L27.1143 2.496L27.0903 1.896C26.2023 1.344 25.2783 0.880001 24.3183 0.504001L24.3423 3.84H26.5863V4.284H24.3423L24.3663 7.884C25.3903 7.492 26.3783 7.012 27.3303 6.444L27.3543 5.844L27.8223 5.832ZM36.2626 7.8V8.22H32.6506V7.8L33.2386 7.788L32.6866 5.82H30.6466L30.2506 7.788L30.8626 7.8V8.22H28.1506V7.8L28.7386 7.788L31.4266 0.276L32.9146 0.072001L35.6746 7.788L36.2626 7.8ZM32.5546 5.376L31.4986 1.62L30.7426 5.376H32.5546ZM44.4457 7.8V8.22H41.5536L39.9216 5.004L39.9576 4.98C39.7736 4.996 39.5136 5.012 39.1776 5.028V7.788L39.7656 7.8V8.22H36.5976V7.8L37.1856 7.788V0.612001L36.5976 0.600001V0.180001L38.9136 0.204001L40.7016 0.0600011C41.2776 0.0600011 41.7696 0.168001 42.1776 0.384001C42.5936 0.592001 42.9056 0.876001 43.1137 1.236C43.3296 1.588 43.4376 1.98 43.4376 2.412C43.4376 2.908 43.2936 3.34 43.0057 3.708C42.7176 4.076 42.2856 4.372 41.7096 4.596L43.8576 7.788L44.4457 7.8ZM39.1776 4.56C39.8416 4.52 40.3616 4.34 40.7376 4.02C41.1136 3.692 41.3016 3.252 41.3016 2.7C41.3016 2.308 41.2096 1.952 41.0256 1.632C40.8416 1.312 40.5896 1.06 40.2696 0.876001C39.9496 0.692001 39.5856 0.600001 39.1776 0.600001V4.56ZM49.5022 7.02C49.8542 7.02 50.1942 6.948 50.5222 6.804C50.8502 6.66 51.1542 6.452 51.4342 6.18L51.7462 6.528C50.7622 7.776 49.6342 8.4 48.3622 8.4C47.6342 8.4 46.9982 8.236 46.4542 7.908C45.9182 7.58 45.5022 7.116 45.2062 6.516C44.9102 5.916 44.7622 5.212 44.7622 4.404C44.7622 3.708 44.8942 3.036 45.1582 2.388C45.4302 1.732 45.7742 1.208 46.1902 0.816001C46.5982 0.552001 47.0342 0.352001 47.4982 0.216001C47.9702 0.0720005 48.4342 4.76837e-07 48.8902 4.76837e-07C49.4982 4.76837e-07 50.0542 0.132001 50.5582 0.396001C51.0702 0.652001 51.4742 1.012 51.7702 1.476L50.2942 2.712C49.8782 1.976 49.3782 1.18 48.7942 0.324001C48.4422 0.468001 48.1222 0.716001 47.8342 1.068C47.5462 1.42 47.3182 1.84 47.1502 2.328C46.9902 2.816 46.9102 3.324 46.9102 3.852C46.9102 4.86 47.1342 5.64 47.5822 6.192C48.0382 6.744 48.6782 7.02 49.5022 7.02ZM59.6825 0.612001V7.788L60.2705 7.8V8.22H57.1025V7.8L57.6905 7.788V4.452H55.0025V7.788L55.5905 7.8V8.22H52.4225V7.8L53.0105 7.788V0.612001L52.4225 0.600001V0.180001H55.5905V0.600001L55.0025 0.612001V4.008H57.6905V0.612001L57.1025 0.600001V0.180001H60.2705V0.600001L59.6825 0.612001ZM70.0206 8.412C69.4686 8.204 68.8926 7.932 68.2926 7.596C67.9806 7.844 67.5926 8.04 67.1286 8.184C66.6726 8.328 66.1966 8.4 65.7006 8.4C65.1806 8.4 64.7046 8.316 64.2726 8.148C63.8486 7.98 63.5126 7.744 63.2646 7.44C63.0166 7.128 62.8926 6.764 62.8926 6.348C62.8926 5.932 63.0246 5.536 63.2886 5.16C63.5606 4.784 63.9206 4.468 64.3686 4.212C63.8406 3.468 63.5766 2.812 63.5766 2.244C63.5766 1.884 63.6846 1.532 63.9006 1.188C64.1246 0.836001 64.4366 0.552001 64.8366 0.336001C65.2366 0.112001 65.6846 4.76837e-07 66.1806 4.76837e-07C66.6126 4.76837e-07 66.9886 0.0840006 67.3086 0.252001C67.6366 0.420001 67.8846 0.640001 68.0526 0.912001C68.2286 1.184 68.3166 1.472 68.3166 1.776C68.3166 2.216 68.1446 2.64 67.8006 3.048C67.4646 3.448 67.0526 3.76 66.5646 3.984C67.1246 4.512 67.7846 4.996 68.5446 5.436C68.7206 4.764 68.8566 4.068 68.9526 3.348L68.3406 3.336V2.916H70.9326V3.336L70.3446 3.348C69.9206 4.548 69.6006 5.396 69.3846 5.892C70.0006 6.188 70.5966 6.42 71.1726 6.588L70.0206 8.412ZM66.5766 2.628C66.5766 2.324 66.5086 2.044 66.3726 1.788C66.2366 1.532 66.0526 1.324 65.8206 1.164C65.5966 0.996001 65.3526 0.900001 65.0886 0.876001C65.0326 1.052 65.0046 1.224 65.0046 1.392C65.0046 2.08 65.4246 2.852 66.2646 3.708C66.4726 3.364 66.5766 3.004 66.5766 2.628ZM67.8726 7.344C67.2806 6.976 66.7206 6.572 66.1926 6.132C65.6726 5.692 65.2166 5.244 64.8246 4.788C64.7446 5.036 64.7046 5.268 64.7046 5.484C64.7046 5.868 64.8206 6.208 65.0526 6.504C65.2926 6.792 65.6126 7.012 66.0126 7.164C66.4126 7.316 66.8526 7.392 67.3326 7.392C67.5166 7.392 67.6966 7.38 67.8726 7.356V7.344ZM73.7812 7.8L74.3692 7.788V0.612001L73.7812 0.600001V0.180001L76.0972 0.204001L77.8012 0.0600011C78.9932 0.0600011 79.9132 0.392001 80.5612 1.056C81.2172 1.72 81.5452 2.68 81.5452 3.936C81.5452 4.784 81.3812 5.532 81.0532 6.18C80.7252 6.82 80.2332 7.32 79.5772 7.68C78.9212 8.04 78.1212 8.22 77.1772 8.22H73.7812V7.8ZM76.6972 7.8C77.5532 7.8 78.2172 7.504 78.6892 6.912C79.1692 6.32 79.4092 5.428 79.4092 4.236C79.4092 3.444 79.2732 2.78 79.0012 2.244C78.7372 1.7 78.3732 1.296 77.9092 1.032C77.4532 0.760001 76.9372 0.624001 76.3612 0.624001V7.8H76.6972ZM88.3496 5.832V8.22H82.2656V7.8L82.8536 7.788V0.612001L82.2656 0.600001V0.180001H88.1096V2.508L87.6416 2.496L87.6176 1.896C86.7296 1.344 85.8056 0.880001 84.8456 0.504001L84.8696 3.84H87.1136V4.284H84.8696L84.8936 7.884C85.9176 7.492 86.9056 7.012 87.8576 6.444L87.8816 5.844L88.3496 5.832ZM96.6579 0.180001V0.600001L96.1539 0.612001L93.3459 8.124L91.7859 8.328L89.1819 0.612001L88.6779 0.600001V0.180001H92.3259V0.600001L91.6179 0.612001L93.2139 6.792L94.6419 0.612001L93.9339 0.600001V0.180001H96.6579ZM103.197 5.832V8.22H97.1133V7.8L97.7013 7.788V0.612001L97.1133 0.600001V0.180001H102.957V2.508L102.489 2.496L102.465 1.896C101.577 1.344 100.653 0.880001 99.6933 0.504001L99.7173 3.84H101.961V4.284H99.7173L99.7413 7.884C100.765 7.492 101.753 7.012 102.705 6.444L102.729 5.844L103.197 5.832ZM110.018 5.832V8.22H103.934V7.8L104.522 7.788V0.612001L103.934 0.600001V0.180001H107.822V0.600001L106.514 0.612001V7.764C107.514 7.412 108.518 6.972 109.526 6.444L109.55 5.844L110.018 5.832ZM114.396 4.76837e-07C115.18 4.76837e-07 115.864 0.152001 116.448 0.456001C117.04 0.760001 117.496 1.208 117.816 1.8C118.144 2.392 118.308 3.116 118.308 3.972C118.308 4.516 118.212 5.08 118.02 5.664C117.828 6.24 117.548 6.752 117.18 7.2C116.796 7.56 116.356 7.852 115.86 8.076C115.364 8.292 114.836 8.4 114.276 8.4C113.5 8.4 112.816 8.248 112.224 7.944C111.64 7.64 111.184 7.192 110.856 6.6C110.536 6.008 110.376 5.284 110.376 4.428C110.376 3.892 110.476 3.332 110.676 2.748C110.876 2.164 111.16 1.648 111.528 1.2C111.904 0.840001 112.336 0.552001 112.824 0.336001C113.32 0.112001 113.844 4.76837e-07 114.396 4.76837e-07ZM112.512 3.588C112.512 4.516 112.632 5.264 112.872 5.832C113.112 6.4 113.476 6.82 113.964 7.092C114.452 7.356 115.084 7.508 115.86 7.548C115.956 7.148 116.032 6.68 116.088 6.144C116.152 5.6 116.184 5.156 116.184 4.812C116.184 3.876 116.06 3.124 115.812 2.556C115.572 1.98 115.204 1.556 114.708 1.284C114.212 1.012 113.58 0.860001 112.812 0.828001C112.724 1.244 112.652 1.728 112.596 2.28C112.54 2.832 112.512 3.268 112.512 3.588ZM125.867 2.532C125.867 3.38 125.503 4.052 124.775 4.548C124.055 5.036 122.999 5.296 121.607 5.328V7.788L122.915 7.8V8.22H119.027V7.8L119.615 7.788V0.612001L119.027 0.600001V0.180001L121.343 0.204001L123.131 0.120001C123.707 0.120001 124.199 0.228001 124.607 0.444001C125.023 0.660001 125.335 0.952001 125.543 1.32C125.759 1.688 125.867 2.092 125.867 2.532ZM123.731 2.88C123.731 2.456 123.639 2.072 123.455 1.728C123.271 1.376 123.015 1.1 122.687 0.900001C122.367 0.700001 122.007 0.600001 121.607 0.600001V4.86C122.271 4.82 122.791 4.628 123.167 4.284C123.543 3.932 123.731 3.464 123.731 2.88ZM136.423 7.8V8.22H133.099V7.8L133.747 7.788L133.183 1.632L130.867 6.876H130.495L128.011 1.596L127.783 7.788L128.431 7.8V8.22H125.803V7.8L126.271 7.788L127.423 0.612001L126.763 0.600001V0.180001H129.523L131.455 4.104L133.123 0.180001H135.607V0.600001L134.971 0.612001L135.955 7.788L136.423 7.8ZM142.959 5.832V8.22H136.875V7.8L137.463 7.788V0.612001L136.875 0.600001V0.180001H142.719V2.508L142.251 2.496L142.227 1.896C141.339 1.344 140.415 0.880001 139.455 0.504001L139.479 3.84H141.723V4.284H139.479L139.503 7.884C140.527 7.492 141.515 7.012 142.467 6.444L142.491 5.844L142.959 5.832ZM151.663 0.180001V0.600001L151.075 0.612001L150.763 8.208L149.311 8.22L144.979 1.404L145.435 7.788L146.143 7.8V8.22H143.695V7.8L144.283 7.788L144.487 0.612001L143.899 0.600001V0.180001H146.863L150.355 5.592L150.043 0.612001L149.335 0.600001V0.180001H151.663ZM159.203 0.180001V2.508L158.735 2.496L158.711 1.896C157.887 1.304 157.203 0.868001 156.659 0.588001V7.788L157.607 7.8V8.22H153.719V7.8L154.667 7.788V0.588001C154.123 0.868001 153.439 1.304 152.615 1.896L152.591 2.496L152.123 2.508V0.180001H159.203Z" fill="#6AD491"/>
</svg>
